<?xml version="1.0" encoding="UTF-8"?>
<svg version="1.1" viewBox="0 0 2000 2000" width="500" height="500" xmlns="http://www.w3.org/2000/svg">
<path transform="translate(0)" d="m0 0h2e3v2e3h-2e3z" fill="#F6FCF3"/>
<path transform="translate(603,461)" d="m0 0h860l-3 43-4 62-4 80-4 66-5 65-5 54-7 58-7 43-7 31-8 26-9 19-9 12-10 11-13 10-11 7-20 9-19 5-29 4-21 2-31 1h-31l-47-2-1-2-3-104v-32l29 1h71l10-6 7-8 8-14 7-21 6-25 6-32 6-44 5-49 5-68 2-41v-19h-259l-2 6-12 64-9 39-8 29-5 15v5l35 20 28 17 22 14 25 17 17 13 16 13-1 5-8 11-29 44-29 43-14 21-4-1-18-14-18-13-17-12-19-13-34-22-22-13-3-1-10 14-11 14-12 14-9 10-7 8-27 27-11 9-15 13-14 11-15 12-16 11-19 12-15 9-26 15-27 14-22 11-29 13-39 15-5 2-5-1-11-27-25-62-15-37-3-9 10-4 25-9 35-15 35-17 24-14 21-13 17-12 18-14 14-12 11-9 10-10 8-7 11-12 8-10 9-11-3-3-28-13-20-9-43-19-67-27 2-5 16-23 22-32 26-38 8-12 11 3 47 16 34 13 46 19 12 6h3l14-42 7-28 4-19v-3l-306-1-1-1v-78l1-61z" fill="#366B39"/>
<path transform="translate(803,1159)" d="m0 0h138l1 242 3 10 7 8 11 5 20 4 36 2h94l27-2 17-3 15-5 11-6 6-5 7-11 5-11 4-15 4-25 3-41 10 1 113 19 1 1-1 14-6 44-6 33-8 30-7 20-10 21-10 16-11 13-9 9-17 12-17 9-20 7-17 5-20 4-31 3-23 1h-98l-51-3-21-2-28-5-26-7-19-7-19-10-14-10-13-13-9-13-8-15-6-17-5-22-2-15-1-13-1-35v-221z" fill="#366B39"/>
<path transform="translate(1359,1125)" d="m0 0 5 4 9 11 11 13 9 11 13 16 13 18 32 46 17 26 12 19 12 20 15 26 13 24 15 29 8 18 6 13 9 22-2 4-15 9-24 15-19 12-21 13-40 25-3-1-12-33-13-30-16-34-18-34-13-23-17-28-15-26-15-23-15-22-11-16-26-36-14-18v-4l16-9 21-13 32-19 16-10 23-14z" fill="#366B39"/>
<path transform="translate(657,1160)" d="m0 0 5 1 58 21 57 21 3 1-1 7-16 37-12 29-7 16-14 33-30 66-22 45-19 38-12 22-9 17-9 15-5-2-16-12-17-12-19-14-54-39-5-4 2-4 15-24 13-22 13-24 18-34 44-88 18-41 12-27z" fill="#366B39"/>
<path transform="translate(974,999)" d="m0 0 12 7 19 12 17 12 16 11 19 14 13 11 13 10 11 9 14 12 11 9 16 15 6 5v2l4 2 7 8 9 8 7 8 10 11 1 4-8 8-7 8-21 21-7 8-20 20-7 8-24 24-2 3-3-1-9-12-11-13-11-12-20-20-7-8-8-8-8-7-12-11-11-9-15-13-14-11-16-13-36-26-13-9-5-3 1-4 15-15 6-7h2l2-4h2l2-4 34-34 2-3h2l2-4 18-18z" fill="#366B39"/>
<path transform="translate(1369,1129)" d="m0 0 5 1 11 11 9 11 9 10 10 14 6 7 6 9v2h2l7 11 10 14 8 12 7 10 7 11 10 15 6 10 12 19 12 21 15 27 6 10 8 16 10 21 5 11 6 17 4 10-1 5-1 2h-3l-12-29-7-15-13-26-12-22-15-27-15-25-14-22-24-36-16-23-12-17-12-16-13-16-18-22-4-5v-5z" fill="#FCFEFC"/>
<path transform="translate(1e3 1011)" d="m0 0 6 2 5 3v2l4 1 8 5v2l5 2 13 9 7 4 20 15v2l4 2 6 4v2l5 2 5 4v2l4 2 5 4v2l5 2v2l4 2 7 7 3 2v2l4 2 8 7 10 8v2h2v2h2v2h2v2h2l7 8 8 9 5 5 1 5-5-2-3-2v-2l-4-2-21-21-7-6v-2l-7-2-8-8-11-9-14-12-14-11-10-8-4-6-10-7-2-1v-2h-2v-2l-4-2-11-7-8-6-3-1v-2l-5-2-12-8-4-5h2z" fill="#FCFEFC"/>
<path transform="translate(1033,726)" d="m0 0h3v7l-3 17 2 8 6 5 11 7v2l20 10v2l20 10 32 20 16 11 7 5v2h3v2l4 2 6 7-2 1-1 2-6-4v-2l-10-3-13-10-32-21-21-13-32-19-20-11-2-2 1-7 7-23h2z" fill="#FCFEFB"/>
<path transform="translate(780,1216)" d="m0 0h4l-1 9-12 27-5 11-8 19-7 14-7 15-10 23-6 11-7 13h-3l1-5 4-9 2-9 11-25 10-24 9-21 16-38 1-2h2l2-6 1-2z" fill="#FCFEFB"/>
<path transform="translate(951,892)" d="m0 0 6 1 22 13 15 10 14 9 16 11 20 14 19 14 12 9-1 5-5 1-6-4-13-10-10-7-9-7-13-9-10-7v-2l-4-2-8-5-5-4-6-3-5-4-8-4-13-8-13-2-1-3 4-5z" fill="#FCFEFB"/>
<path transform="translate(956,1147)" d="m0 0 7 3 15 13 11 9 12 11 8 7 13 12 7 7 7 8 22 22 9 11 8 10-2 4h-5l-10-12-4-6-45-45-7-8-1-3-4-2-13-10-8-7-9-10-8-6-3-2-1-5z" fill="#FCFEFB"/>
<path transform="translate(1558,1444)" d="m0 0 1 2h-2v5l-6 7-13 8-10 7-18 11-17 11-30 18-10 4-5-1 1-4 4-4 40-25 21-13 40-25z" fill="#FCFEFB"/>
<path transform="translate(880,972)" d="m0 0 2 4-11 10h-2l-2 4-8 7-11 9-13 11h-2l-1 3-16 12-13 9-11 5-10 7-8 4-10 6-3-2h2v-5l22-13 17-11 17-12 14-11 11-9 26-22z" fill="#FBFEFB"/>
<path transform="translate(523,1455)" d="m0 0 5 1 16 12 28 20 19 14 18 13 8 6 2 5-2 2-5-1-4-5-9-4-5-6-10-5-5-6-9-4-6-7-9-4-5-6-8-4-8-8-6-3-4-4z" fill="#FCFEFB"/>
<path transform="translate(1066,604)" d="m0 0h6l4 3-1 3-10 3-4 9-2 5v9l-3 10-2 10-4 17-2 11-4 18-4 7h-2l-1-4 4-17 1-11 9-46 2-11h2l1-10 1-5z" fill="#FCFEFB"/>
<path transform="translate(1152,879)" d="m0 0 3 3-4 8-13 23-7 10-8 12-12 16-15 21-4-3 2-6 29-44 9-13 5-5 7-11h2l2-6 2-3h2z" fill="#FCFEFC"/>
<path transform="translate(1426,927)" d="m0 0 3 2v11l-2 8-2 12-4 16-7 21-8 14-8 9-1 2-3-1v-3h2l2-5 3-9 7-15 8-26 7-31h2z" fill="#FBFEFB"/>
<path transform="translate(1286,1509)" d="m0 0h5l-4 8-11 12-11 10-13 9-12 5-7 3-2 1h-11v-3l3-3 15-6 18-10 14-11 7-7 4-2 1-2h2z" fill="#FCFEFB"/>
<path transform="translate(690,1416)" d="m0 0 2 1-2 9-6 11-4 10-15 30-9 19-9 15-6 8h-3l-1-3 3-8 12-22 3-3 9-16 9-17 4-10 7-12h2l1-7 3-1z" fill="#FCFEFC"/>
<path transform="translate(1308,603)" d="m0 0h6l2 7-1 9 1 6v38l-2 1-1-3-2-1-1-8-1-35-1-4-19-3 1-2 9-3h8z" fill="#FCFEFC"/>
<path transform="translate(894,1102)" d="m0 0h5l14 10 18 13 14 11 9 7-1 4-6-5-8-1-5-6v-2l-5-1-8-5-16-12-7-6-4-3z" fill="#FBFEFB"/>
<path transform="translate(1462,477)" d="m0 0 1 2h2v9l2 13-1 15-3 11-2 4v7h-2l-1 3v-25l3-38z" fill="#FBFEFB"/>
<path transform="translate(886,674)" d="m0 0h3l-1 9-4 12-4 1-14-7-5-2v-2l-2-1h2v-2l12 1 6-3z" fill="#FBFEFB"/>
<path transform="translate(904,603)" d="m0 0h5l-2 13-4 17-5-1v-14l-2-10 2-4z" fill="#FBFEFB"/>
<path transform="translate(1312,1463)" d="m0 0 2 1v7l-12 24-6 8h-2l-1-3 4-9 4-10 4-8 2-1 3-7z" fill="#FDFFFD"/>
<path transform="translate(1142,1209)" d="m0 0 2 1-1 5-14 15-5 5-8 7h-2v-4h2v-2h2v-3l4-4h2l2-6 10-10h4v-2h2z" fill="#FCFEFB"/>
<path transform="translate(833,1511)" d="m0 0 4 2 11 11 15 10v3l-4-1-5-4-6-1-6-4-8-9z" fill="#FBFEFB"/>
<path transform="translate(1329,1311)" d="m0 0 3 1 13 22-1 4-5 1-2-3-1-10-6-2v-5l-2-5z" fill="#FBFEFB"/>
<path transform="translate(700,678)" d="m0 0 1 4-15 22-7 10-3-1 5-10 5-8 4-6 4-1 2-5 4-2z" fill="#FBFEFA"/>
<path transform="translate(1072,1067)" d="m0 0 4 1 11 8 5 5 12 10 7 5v2l4 2 10 10 1 2-4-2-12-11-11-9-13-11-14-11z" fill="#F6FCF3"/>
<path transform="translate(803,813)" d="m0 0h6l8 4 1 2-1 2-5 2-2 3-4-2-5-8z" fill="#FCFEFB"/>
<path transform="translate(1457,569)" d="m0 0 4 1 1 7-2 18-1-2h-3v-20z" fill="#FDFFFD"/>
<path transform="translate(1412,1467)" d="m0 0 3 3 8 20 5 13v3h-2l-6-12-3-9-2-7-2-4v-5l-2-1z" fill="#FDFFFD"/>
<path transform="translate(896,637)" d="m0 0 4 1v8l-4 13-3-1-1-6z" fill="#FBFEFA"/>
<path transform="translate(1386,1028)" d="m0 0 3 1-2 4-10 9-4 3-4-1v-3l3-4 4 1 2-2 3 1v-2l-3-1z" fill="#FCFEFC"/>
<path transform="translate(944,1405)" d="m0 0 7 3 5 6 2 4-7 1-7-8z" fill="#FBFEFB"/>
<path transform="translate(708,1379)" d="m0 0h2l-1 7-3 5-2 5h-2l-1 6-4 5h-2l3-9 8-16z" fill="#FDFFFD"/>
<path transform="translate(595,1080)" d="m0 0h2l1 4h2l5 12 2 11-4-3-5-11-1-9h-2z" fill="#FBFEFA"/>
<path transform="translate(1310,694)" d="m0 0 2 2v23l-2 2-2-16v-10z" fill="#FCFEFB"/>
<path transform="translate(1441,802)" d="m0 0 4 5v13l-1 3h-4z" fill="#FDFFFD"/>
<path transform="translate(1445,754)" d="m0 0h1l2 12 1 1v9l-2 3-3-2v-10z" fill="#FDFFFD"/>
<path transform="translate(1430,907)" d="m0 0 3 2v8l-3 7-4-2 3-13z" fill="#FDFFFD"/>
<path transform="translate(1433,878)" d="m0 0h3l1 11-2 6-3 1-1-5z" fill="#FDFFFD"/>
<path transform="translate(1437,842)" d="m0 0 3 4 1 2v8l-1 5-4 1v-11z" fill="#FDFFFD"/>
<path transform="translate(1306,743)" d="m0 0 2 1v18l-1 1-1 8h-1v-10l-1-4v-13z" fill="#FCFEFB"/>
<path transform="translate(1453,649)" d="m0 0 4 2v9l-1 7-1-2h-3v-13z" fill="#FDFFFD"/>
<path transform="translate(1399,1438)" d="m0 0 3 3 9 20 1 6-3-3-8-16z" fill="#FDFFFD"/>
<path transform="translate(1449,711)" d="m0 0 4 4v9l-2 3-3-1v-13z" fill="#FDFFFD"/>
<path transform="translate(1302,781)" d="m0 0 2 1v14l-2 6h-1l-1-20z" fill="#FCFEFB"/>
<path transform="translate(1108,942)" d="m0 0 1 2-3 6h-2l-2 6-2 4h-2v2h-2l-2 4v-3z" fill="#F6FCF3"/>
<path transform="translate(1297,811)" d="m0 0h3v13l-3 4-1-16z" fill="#FCFEFB"/>
<path transform="translate(624,1232)" d="m0 0 1 4-5 11-3 1 1-7 1-2h2l2-6z" fill="#FBFEFA"/>
<path transform="translate(1256,1207)" d="m0 0 4 1 4 5v3l-6-1-2-5z" fill="#FBFEFB"/>
<path transform="translate(1038,711)" d="m0 0 2 1-1 8-4 2-1-4 2-6z" fill="#FDFFFD"/>
<path transform="translate(1266,1221)" d="m0 0 5 2 3 4 1 4-5-1-3-4z" fill="#FCFEFB"/>
<path transform="translate(867,981)" d="m0 0v3l-6 5h-2v3h-2v2l-6 3-2-1 15-13z" fill="#F6FCF3"/>
<path transform="translate(1294,836)" d="m0 0h2v11l-3 2-1-12z" fill="#FCFEFB"/>
<path transform="translate(1238,1545)" d="m0 0 2 1-4 3-10 4h-5l2-2z" fill="#F6FCF3"/>
<path transform="translate(1305,1473)" d="m0 0 1 3-3 7-3 6h-2l2-6z" fill="#F6FCF3"/>
<path transform="translate(514,1448)" d="m0 0 5 2 3 2-1 2h-5l-2-3z" fill="#FBFEFA"/>
<path transform="translate(1312,667)" d="m0 0h2v12l-3-4v-7z" fill="#FDFFFD"/>
<path transform="translate(1297,1263)" d="m0 0 5 3 1 5-5-2-2-5z" fill="#FBFEFB"/>
<path transform="translate(1290,857)" d="m0 0h2v9h-2l-1 2v-10z" fill="#FCFEFB"/>
<path transform="translate(1278,1236)" d="m0 0 5 3 1 5-4-2-3-5z" fill="#FBFEFA"/>
</svg>
